<svg xmlns="http://www.w3.org/2000/svg" viewBox="0 0 480 650" role="img" aria-labelledby="how-i-operate-mobile-dark-title how-i-operate-mobile-dark-desc">
<title id="how-i-operate-mobile-dark-title">How I operate</title>
<desc id="how-i-operate-mobile-dark-desc">Vertical five-step operating model with a feedback loop from Measure back to Understand the system.</desc>
<defs>
  <marker id="operate-arrow-mobile-dark" markerWidth="10" markerHeight="10" refX="8.8" refY="5"
          orient="auto" markerUnits="userSpaceOnUse">
    <path d="M0 0 L10 5 L0 10 Z" fill="#6F84FF"/>
  </marker>
</defs>
<rect width="480" height="650" fill="transparent"/>

<path d="M170 574
         C105 574 72 544 72 500
         L72 145
         C72 109 92 92 128 92"
      fill="none"
      stroke="#6F84FF"
      stroke-width="2.2"
      stroke-linecap="round"
      stroke-dasharray="5 7"
      marker-end="url(#operate-arrow-mobile-dark)"/>

<rect x="24" y="300" width="96" height="92" rx="22"
      fill="#111214" stroke="#6F84FF" stroke-width="1.5"/>
<text x="72" y="323"
      text-anchor="middle"
      fill="#6F84FF"
      font-family="JetBrains Mono, Menlo, monospace"
      font-size="12"
      font-weight="600">
  <tspan x="72">Seek</tspan>
  <tspan x="72" dy="17">feedback</tspan>
  <tspan x="72" dy="17">&amp;</tspan>
  <tspan x="72" dy="17">iterate</tspan>
</text>

<g fill="none" stroke="#6F84FF" stroke-width="2">
  <circle cx="170" cy="105" r="30"/>
  <circle cx="170" cy="220" r="30"/>
  <circle cx="170" cy="335" r="30"/>
  <circle cx="170" cy="450" r="30"/>
  <circle cx="170" cy="565" r="30"/>
</g>

<g transform="translate(155.92,90.92) scale(0.88)" stroke="#6F84FF" fill="none" stroke-width="2.5" stroke-linecap="round" stroke-linejoin="round"><circle cx="10" cy="18" r="5"/><circle cx="22" cy="18" r="5"/><path d="M9 13l3-7h4l2 7M23 13l-3-7h-4l-2 7M15 18h2"/></g>
<g transform="translate(155.92,205.92) scale(0.88)" stroke="#6F84FF" fill="none" stroke-width="2.5" stroke-linecap="round" stroke-linejoin="round"><rect x="8" y="5" width="13" height="20" rx="2"/><line x1="11" y1="10" x2="18" y2="10"/><circle cx="22" cy="21" r="4"/><line x1="25" y1="24" x2="29" y2="28"/></g>
<g transform="translate(156.56,321.56) scale(0.84)" stroke="#6F84FF" fill="none" stroke-width="2.5" stroke-linecap="round" stroke-linejoin="round"><circle cx="11" cy="12" r="4"/><circle cx="21" cy="12" r="4"/><path d="M4 26c0-5 3-8 7-8s7 3 7 8"/><path d="M14 26c0-5 3-8 7-8s7 3 7 8"/></g>
<g transform="translate(156.56,436.56) scale(0.84)" stroke="#6F84FF" fill="none" stroke-width="2.5" stroke-linecap="round" stroke-linejoin="round"><path d="M4 15L28 5 19 28 14 19 4 15Z"/><path d="M14 19L28 5"/></g>
<g transform="translate(156.56,551.56) scale(0.84)" stroke="#6F84FF" fill="none" stroke-width="2.5" stroke-linecap="round" stroke-linejoin="round"><line x1="5" y1="27" x2="29" y2="27"/><line x1="8" y1="27" x2="8" y2="18"/><line x1="15" y1="27" x2="15" y2="12"/><line x1="22" y1="27" x2="22" y2="7"/></g>

<g stroke="#6F84FF" stroke-width="2" fill="none" marker-end="url(#operate-arrow-mobile-dark)">
  <line x1="170" y1="143" x2="170" y2="178"/>
  <line x1="170" y1="258" x2="170" y2="293"/>
  <line x1="170" y1="373" x2="170" y2="408"/>
  <line x1="170" y1="488" x2="170" y2="523"/>
</g>

<g fill="#6F84FF" font-family="JetBrains Mono, Menlo, monospace" font-size="13" font-weight="700">
  <text x="214" y="101">01</text>
  <text x="214" y="216">02</text>
  <text x="214" y="331">03</text>
  <text x="214" y="446">04</text>
  <text x="214" y="561">05</text>
</g>

<g fill="#F2F2F0" font-family="Instrument Sans, Inter, Arial, sans-serif" font-size="19" font-weight="700">
  <text x="256" y="108">Understand the system</text>
  <text x="256" y="223">Find the constraint</text>
  <text x="256" y="338">Align the team</text>
  <text x="256" y="453">Ship</text>
  <text x="256" y="568">Measure</text>
</g>
</svg>